<?xml version="1.0" standalone="no"?>
<!DOCTYPE svg PUBLIC "-//W3C//DTD SVG 20010904//EN"
 "http://www.w3.org/TR/2001/REC-SVG-20010904/DTD/svg10.dtd">
<svg version="1.0" xmlns="http://www.w3.org/2000/svg"
 width="4497.000000pt" height="4497.000000pt" viewBox="0 0 4497.000000 4497.000000"
 preserveAspectRatio="xMidYMid meet">
<metadata>
Created by potrace 1.11, written by Peter Selinger 2001-2013
</metadata>
<g transform="translate(0.000000,4497.000000) scale(0.100000,-0.100000)"
fill="#000000" stroke="none">
<path d="M36208 44184 c-2 -1 -120 -5 -263 -9 -382 -10 -584 -21 -780 -41 -27
-3 -70 -7 -95 -9 -25 -2 -67 -6 -95 -9 -27 -3 -68 -8 -90 -10 -22 -3 -60 -7
-85 -11 -25 -3 -65 -8 -90 -11 -25 -3 -58 -8 -75 -11 -16 -3 -43 -7 -60 -8
-38 -5 -93 -13 -125 -19 -30 -6 -93 -16 -135 -22 -16 -2 -41 -6 -55 -9 -14 -3
-41 -8 -60 -11 -19 -3 -43 -7 -53 -10 -10 -3 -30 -7 -45 -9 -15 -3 -38 -7 -52
-10 -14 -3 -36 -8 -50 -11 -28 -5 -295 -63 -322 -70 -10 -2 -26 -6 -35 -9 -10
-2 -45 -11 -78 -18 -33 -8 -80 -20 -105 -27 -25 -7 -47 -12 -50 -12 -3 0 -15
-4 -28 -9 -12 -5 -33 -11 -45 -13 -12 -3 -69 -19 -127 -36 -58 -17 -114 -33
-124 -35 -11 -3 -49 -15 -85 -27 -36 -12 -68 -23 -71 -23 -25 -4 -158 -50
-167 -58 -7 -5 -13 -7 -13 -3 0 3 -24 -4 -52 -15 -29 -12 -57 -22 -63 -24 -5
-1 -17 -5 -25 -8 -8 -3 -60 -22 -115 -42 -105 -38 -372 -144 -440 -175 -22
-10 -67 -30 -100 -44 -119 -52 -163 -73 -395 -188 -354 -176 -574 -307 -826
-493 -118 -88 -264 -204 -295 -234 -9 -9 -42 -38 -75 -66 -94 -79 -392 -380
-495 -500 -239 -277 -513 -650 -628 -855 -50 -89 -201 -390 -196 -390 3 0 -1
-10 -9 -22 -13 -21 -125 -296 -131 -322 -1 -6 -5 -18 -8 -26 -5 -14 -30 -89
-32 -100 -1 -3 -4 -12 -8 -20 -9 -25 -47 -154 -52 -179 -2 -14 -11 -45 -19
-70 -8 -25 -17 -59 -20 -76 -8 -40 -15 -71 -21 -95 -17 -69 -34 -152 -41 -199
-2 -18 -6 -36 -8 -40 -2 -3 -7 -31 -11 -61 -4 -30 -8 -58 -10 -61 -2 -3 -6
-30 -9 -60 -3 -30 -8 -63 -10 -74 -3 -18 -11 -82 -22 -175 -2 -19 -6 -57 -8
-85 -9 -100 -17 -181 -23 -245 -4 -36 -8 -5289 -10 -11675 -2 -6385 -5 -11615
-7 -11620 -4 -12 -201 -12 -521 -1 -307 11 -364 14 -450 21 -44 4 -93 8 -110
10 -16 1 -52 5 -80 9 -27 4 -63 8 -80 10 -64 9 -131 18 -150 22 -10 2 -35 6
-55 9 -20 3 -47 8 -60 10 -14 3 -38 8 -55 11 -44 8 -228 44 -245 49 -8 2 -37
9 -65 15 -27 6 -58 14 -67 16 -10 2 -26 6 -35 8 -10 2 -47 12 -83 21 -36 9
-74 19 -85 21 -11 2 -92 25 -180 50 -88 26 -164 47 -170 49 -5 1 -50 14 -100
30 -49 16 -94 30 -100 31 -36 9 -520 174 -650 223 -27 10 -75 28 -105 39 -30
11 -127 47 -215 80 -88 33 -241 90 -340 127 -99 37 -205 78 -235 92 -373 169
-739 399 -1330 837 -333 246 -530 426 -785 717 -36 41 -201 248 -270 338 -80
106 -352 503 -430 630 -5 9 -24 38 -41 66 -39 63 -134 217 -155 253 -123 206
-345 586 -389 667 -18 33 -41 74 -51 92 -10 18 -35 63 -55 100 -20 37 -44 82
-54 98 -10 17 -37 66 -60 110 -46 85 -87 162 -140 260 -53 97 -422 832 -467
930 -23 50 -65 139 -92 198 -28 60 -51 110 -51 112 0 3 -42 95 -101 221 -10
23 -19 44 -19 46 0 3 -10 27 -22 54 -12 27 -23 51 -23 54 -1 3 -11 25 -22 50
-32 72 -215 527 -217 540 -1 3 -9 24 -18 45 -36 84 -176 476 -209 585 -11 36
-24 74 -29 85 -5 11 -32 92 -61 180 -28 88 -64 198 -81 245 -16 47 -30 92 -33
100 -5 20 -94 291 -102 310 -3 8 -7 18 -8 23 -2 4 -3 8 -5 10 -1 1 -3 9 -5 17
-2 8 -40 128 -85 265 -96 293 -89 274 -90 280 0 3 -7 22 -16 43 -8 20 -17 44
-19 52 -2 8 -19 62 -38 120 -19 58 -63 193 -97 300 -34 107 -76 236 -92 285
-16 50 -31 95 -32 100 -1 6 -18 57 -36 115 -19 58 -34 107 -35 110 0 3 -11 39
-25 80 -13 41 -25 81 -26 88 -1 8 -6 21 -10 30 -4 9 -8 22 -9 28 -4 16 -85
277 -92 294 -8 18 -7 16 -22 70 -7 25 -23 79 -36 120 -44 138 -89 285 -91 296
-1 9 -31 109 -66 224 -6 19 -10 35 -9 35 1 0 -12 39 -28 88 -16 48 -28 87 -26
87 3 0 0 12 -6 28 -14 35 -59 190 -65 221 -3 13 -9 32 -14 41 -5 9 -11 28 -13
41 -3 13 -17 65 -32 114 -14 50 -28 99 -30 110 -3 11 -16 58 -30 105 -26 86
-32 106 -39 138 -13 53 -36 131 -46 157 -6 17 -11 30 -10 30 3 0 -12 59 -32
129 -11 38 -21 76 -23 85 -3 14 -27 105 -40 151 -2 8 -9 33 -15 55 -6 22 -13
48 -15 58 -3 9 -7 25 -9 35 -2 9 -16 61 -31 115 -14 53 -28 105 -30 115 -2 9
-33 134 -70 277 -36 143 -68 269 -71 280 -2 11 -11 49 -20 85 -9 36 -18 76
-21 90 -2 14 -13 59 -24 101 -11 42 -22 87 -25 100 -15 69 -22 102 -30 132 -3
12 -7 33 -10 47 -3 14 -7 33 -10 42 -3 9 -7 26 -9 37 -3 12 -7 31 -11 44 -3
12 -6 31 -8 42 -2 11 -8 38 -14 60 -6 22 -13 51 -16 65 -8 40 -25 123 -31 150
-3 14 -8 36 -11 50 -4 21 -8 42 -19 90 -1 3 -4 19 -8 35 -9 39 -16 72 -23 115
-3 19 -8 38 -10 41 -2 3 -6 19 -8 35 -3 16 -8 40 -11 54 -3 14 -8 39 -11 55
-3 17 -9 48 -14 70 -5 22 -11 54 -14 70 -3 17 -8 41 -11 55 -3 14 -7 36 -10
50 -3 14 -7 36 -10 50 -3 14 -7 36 -10 50 -8 43 -14 74 -20 100 -3 14 -7 36
-10 50 -3 14 -7 36 -10 50 -7 34 -14 70 -20 103 -3 15 -7 39 -10 55 -3 15 -7
38 -10 52 -2 14 -9 48 -15 75 -5 28 -12 64 -15 80 -12 72 -16 92 -22 120 -4
17 -6 33 -5 37 1 4 -2 18 -7 30 -5 13 -11 43 -15 68 -3 25 -8 56 -11 70 -3 14
-8 39 -10 55 -3 17 -8 37 -10 45 -2 8 -6 33 -10 55 -3 22 -7 47 -10 55 -2 8
-6 31 -9 50 -3 19 -8 46 -11 60 -3 14 -8 45 -11 70 -3 25 -8 48 -10 51 -2 4
-6 24 -10 44 -3 21 -7 45 -9 54 -2 14 -18 98 -40 216 -3 17 -8 45 -11 64 -3
18 -8 43 -10 55 -2 11 -7 36 -10 55 -3 18 -8 43 -10 55 -2 11 -8 46 -14 76 -6
30 -12 66 -15 80 -3 13 -7 42 -11 64 -3 22 -7 43 -9 46 -2 4 -7 29 -10 56 -4
27 -10 65 -15 84 -5 19 -11 51 -14 70 -3 19 -8 46 -11 60 -2 14 -7 36 -10 50
-2 14 -7 39 -10 55 -5 28 -8 46 -20 105 -2 14 -7 39 -10 55 -5 28 -8 46 -20
105 -2 14 -7 39 -10 55 -3 17 -7 41 -10 55 -3 14 -8 39 -10 55 -3 17 -8 37
-10 45 -2 8 -6 31 -9 50 -3 19 -8 46 -11 60 -8 38 -16 83 -20 105 -1 11 -10
56 -20 100 -9 44 -19 91 -21 105 -4 21 -10 51 -20 95 -1 6 -5 24 -8 40 -6 34
-23 117 -31 155 -5 24 -10 49 -21 100 -3 14 -7 34 -8 45 -7 40 -17 86 -31 147
-8 35 -16 74 -19 88 -2 14 -10 48 -16 75 -6 28 -13 59 -15 70 -2 11 -6 31 -9
45 -4 14 -9 41 -12 60 -3 19 -8 38 -10 41 -2 3 -6 21 -9 40 -3 19 -11 52 -17
74 -5 22 -12 49 -14 60 -2 11 -6 31 -9 45 -4 14 -8 34 -10 45 -3 11 -7 29 -9
40 -3 11 -12 52 -21 90 -9 39 -18 79 -21 90 -3 11 -7 31 -10 45 -3 14 -10 43
-16 65 -5 22 -12 49 -14 60 -2 11 -29 119 -59 240 -31 121 -57 227 -59 235 -2
8 -16 60 -30 115 -15 55 -29 111 -32 125 -2 14 -7 32 -11 40 -8 20 -13 38 -27
98 -2 9 -9 29 -15 45 -6 15 -9 27 -6 27 2 0 -2 19 -11 41 -8 23 -16 52 -18 64
-2 12 -21 78 -41 146 -20 68 -38 129 -39 134 -2 6 -9 30 -16 55 -7 25 -14 50
-16 55 -3 14 -144 437 -151 455 -3 8 -7 20 -9 25 -3 13 -91 274 -144 430 -64
187 -100 287 -116 322 -8 17 -14 37 -14 45 0 8 -3 18 -7 22 -4 3 -8 12 -9 19
-1 7 -8 26 -15 42 -7 17 -13 32 -13 35 -1 3 -6 19 -13 35 -6 17 -26 68 -43
115 -18 47 -37 96 -43 110 -6 14 -11 27 -12 30 -3 9 -16 45 -24 65 -5 11 -9
25 -11 30 -1 6 -7 19 -13 30 -6 11 -12 25 -13 31 -1 9 -47 120 -74 179 -5 11
-45 101 -88 200 -101 229 -330 696 -351 715 -4 3 -21 34 -40 70 -18 36 -71
128 -118 205 -46 77 -89 149 -96 160 -47 77 -268 401 -342 500 -291 389 -606
724 -962 1022 -95 80 -351 272 -453 340 -115 77 -218 143 -224 143 -3 0 -24
13 -48 29 -90 60 -449 246 -588 305 -36 16 -78 35 -95 44 -16 9 -32 16 -35 15
-3 0 -14 3 -25 7 -11 4 -67 26 -125 49 -58 22 -108 41 -112 41 -4 0 -19 5 -35
12 -15 6 -32 12 -38 14 -5 1 -71 22 -145 47 -74 25 -153 51 -175 57 -102 28
-192 52 -215 56 -14 3 -33 7 -42 10 -9 3 -26 7 -37 9 -12 3 -31 7 -43 10 -13
3 -34 7 -48 10 -14 3 -36 7 -50 10 -14 3 -40 8 -59 11 -18 3 -43 7 -54 10 -12
2 -39 6 -62 9 -22 3 -47 8 -55 10 -8 2 -41 7 -73 10 -32 4 -68 8 -80 10 -11 3
-55 7 -97 11 -41 3 -91 7 -110 9 -107 11 -322 19 -520 19 -259 0 -450 -8 -690
-29 -205 -18 -269 -25 -382 -40 -21 -3 -55 -7 -75 -10 -68 -9 -128 -17 -148
-20 -11 -2 -43 -6 -71 -9 -28 -4 -61 -9 -75 -11 -13 -3 -44 -8 -69 -11 -25 -3
-54 -8 -65 -10 -10 -2 -37 -6 -60 -9 -36 -5 -108 -17 -182 -30 -16 -3 -48 -8
-73 -11 -25 -3 -47 -8 -50 -9 -3 -2 -26 -6 -50 -10 -25 -3 -63 -11 -85 -17
-22 -5 -48 -12 -57 -14 -10 -2 -28 -6 -40 -9 -13 -3 -34 -7 -48 -10 -14 -3
-36 -7 -50 -10 -14 -3 -36 -8 -50 -11 -14 -3 -41 -9 -60 -14 -19 -5 -39 -10
-45 -11 -5 0 -16 -5 -23 -11 -6 -6 -12 -8 -12 -5 0 6 -125 -34 -165 -52 -25
-11 -112 -50 -140 -62 -11 -5 -27 -13 -35 -19 -8 -5 -46 -28 -85 -51 -139 -83
-285 -208 -366 -314 -13 -16 -26 -32 -29 -35 -3 -3 -17 -21 -30 -40 -13 -19
-27 -37 -31 -40 -28 -21 -192 -384 -190 -420 0 -3 -4 -21 -9 -40 -16 -60 -27
-128 -37 -215 -12 -116 -7 -339 11 -430 2 -11 7 -40 11 -64 25 -150 105 -362
199 -526 54 -95 177 -258 224 -296 11 -10 24 -23 28 -31 16 -25 147 -130 229
-184 141 -92 280 -153 452 -198 73 -20 106 -22 275 -20 174 1 261 6 383 18 99
11 151 17 165 21 8 2 38 7 65 10 28 3 57 7 65 10 8 2 33 7 55 10 40 5 63 9
115 20 14 2 39 7 55 10 17 3 40 7 51 9 12 2 37 7 55 10 19 3 43 7 54 10 11 2
40 7 65 11 25 4 54 9 65 11 42 9 97 17 185 30 111 15 216 19 565 19 349 0 531
-6 616 -20 13 -2 47 -7 74 -10 80 -11 86 -13 160 -30 61 -14 251 -73 295 -92
8 -3 17 -7 20 -8 91 -30 319 -153 460 -248 132 -87 332 -254 410 -341 19 -22
47 -51 61 -65 14 -14 48 -53 75 -86 27 -33 51 -62 54 -65 16 -14 184 -247 232
-320 53 -81 125 -202 176 -293 61 -108 262 -518 262 -533 0 -2 14 -34 31 -71
17 -38 45 -102 61 -143 16 -41 36 -88 43 -105 7 -16 30 -73 50 -125 20 -52 42
-106 48 -120 5 -14 11 -29 12 -35 3 -9 29 -78 50 -130 4 -11 9 -24 11 -30 1
-5 12 -35 24 -65 11 -30 33 -89 47 -130 14 -41 30 -81 36 -87 5 -7 6 -13 3
-13 -4 0 -2 -9 4 -21 6 -11 13 -28 15 -37 5 -25 91 -302 103 -332 5 -14 10
-29 11 -35 1 -5 5 -23 10 -40 5 -16 22 -70 37 -120 15 -49 26 -90 24 -90 -1 0
5 -18 13 -40 9 -22 26 -74 38 -115 36 -122 60 -202 76 -250 8 -25 16 -52 18
-61 2 -9 13 -47 25 -85 12 -38 23 -76 25 -84 2 -8 32 -118 68 -245 35 -126 68
-243 72 -260 5 -16 9 -34 11 -40 5 -18 86 -340 90 -357 2 -10 6 -26 8 -35 2
-10 10 -40 16 -68 6 -27 14 -59 16 -70 3 -11 7 -29 9 -40 7 -39 16 -80 20 -95
2 -8 7 -28 10 -45 2 -16 7 -41 10 -55 3 -14 13 -59 21 -100 17 -80 21 -101 29
-140 7 -29 19 -88 45 -216 6 -28 13 -64 16 -80 3 -16 7 -36 9 -44 2 -8 7 -28
10 -45 2 -16 7 -41 10 -55 3 -14 7 -36 10 -50 3 -14 7 -36 10 -50 4 -14 7 -34
9 -45 2 -11 6 -33 10 -50 10 -47 16 -77 22 -115 3 -19 7 -43 10 -52 3 -10 7
-30 10 -45 2 -16 7 -39 10 -53 3 -14 8 -36 10 -50 3 -14 16 -81 29 -150 14
-69 27 -138 30 -155 2 -16 7 -41 10 -55 3 -14 7 -36 10 -50 5 -27 12 -60 20
-100 2 -14 7 -38 10 -55 3 -16 7 -41 10 -55 3 -14 8 -40 11 -59 3 -18 8 -43
10 -55 2 -11 6 -32 9 -46 3 -14 7 -36 10 -50 3 -14 8 -40 11 -59 6 -38 10 -56
24 -126 5 -27 12 -63 15 -80 3 -16 7 -41 10 -55 3 -14 8 -40 11 -59 3 -18 8
-43 10 -55 2 -11 9 -48 14 -81 6 -33 15 -80 20 -105 5 -25 12 -58 15 -75 3
-16 8 -43 11 -60 3 -16 7 -39 9 -50 10 -63 17 -104 25 -135 5 -19 12 -55 15
-80 4 -24 8 -47 10 -50 1 -3 6 -27 9 -54 4 -27 9 -52 10 -55 2 -3 7 -26 10
-51 3 -25 8 -56 11 -70 12 -55 20 -160 20 -250 l0 -95 -63 -99 c-78 -123 -235
-333 -468 -626 -98 -124 -355 -450 -572 -725 -216 -275 -407 -518 -425 -539
-18 -22 -50 -63 -72 -92 -22 -28 -70 -89 -106 -135 -36 -46 -251 -322 -477
-614 -227 -291 -418 -537 -425 -545 -19 -22 -105 -133 -170 -220 -31 -41 -62
-82 -70 -90 -7 -8 -56 -70 -108 -138 -52 -68 -157 -205 -234 -305 -78 -100
-179 -231 -225 -292 -46 -60 -88 -114 -92 -120 -9 -11 -394 -516 -553 -725
-55 -72 -142 -187 -192 -253 -51 -67 -176 -232 -278 -367 -102 -135 -189 -250
-194 -256 -8 -10 -963 -1285 -998 -1333 -17 -22 -142 -191 -383 -516 -58 -77
-236 -320 -397 -540 -161 -220 -297 -405 -302 -411 -8 -10 -56 -75 -250 -338
-152 -207 -311 -422 -318 -431 -5 -5 -49 -64 -98 -130 -201 -271 -388 -522
-409 -550 -13 -16 -208 -275 -433 -575 -225 -300 -465 -617 -531 -705 -340
-447 -638 -837 -927 -1213 -336 -438 -356 -464 -715 -926 -124 -159 -242 -311
-263 -339 -21 -27 -43 -55 -48 -61 -5 -6 -39 -49 -75 -96 -36 -47 -77 -100
-92 -119 -15 -19 -80 -102 -145 -185 -64 -83 -130 -167 -146 -186 -16 -19 -99
-125 -185 -235 -86 -110 -171 -217 -189 -239 -17 -21 -36 -46 -41 -55 -5 -9
-16 -22 -23 -29 -7 -7 -61 -74 -120 -150 -60 -75 -216 -272 -348 -437 -132
-166 -253 -318 -270 -339 -16 -21 -188 -234 -380 -475 -193 -240 -376 -470
-407 -511 -32 -41 -95 -123 -140 -181 -98 -126 -107 -139 -165 -227 -51 -77
-163 -301 -163 -325 0 -9 -4 -18 -9 -21 -4 -3 -12 -20 -16 -38 -4 -18 -9 -37
-11 -43 -9 -25 -43 -175 -49 -215 -13 -81 -12 -313 1 -405 8 -49 24 -130 36
-180 12 -49 22 -93 23 -97 0 -12 107 -175 153 -236 181 -236 439 -409 735
-492 81 -22 87 -23 178 -40 160 -29 464 -32 669 -6 104 13 136 19 157 27 13 5
23 7 23 4 0 -2 18 2 40 10 22 8 40 12 40 10 0 -3 12 0 27 6 16 6 35 12 43 14
24 5 112 36 145 50 17 8 57 25 90 39 33 15 67 31 75 36 8 6 25 14 37 19 44 20
210 127 293 190 141 106 218 179 454 425 17 17 164 200 329 406 164 206 313
392 331 414 17 21 35 46 40 55 5 9 13 18 16 21 4 3 38 43 74 90 37 47 72 92
79 100 7 8 26 33 42 55 17 22 35 45 41 50 6 6 35 42 65 80 30 39 57 71 61 73
5 2 8 8 8 13 0 5 8 17 18 27 9 10 57 70 107 133 49 62 251 319 447 569 197
250 362 461 368 467 6 7 78 99 161 205 82 106 162 208 177 227 34 44 535 688
561 721 34 45 150 195 159 206 12 14 424 547 538 695 91 119 342 446 356 464
4 6 32 42 61 80 29 39 91 120 137 180 271 354 423 555 753 995 164 217 300
400 305 405 7 9 56 75 74 100 4 5 36 48 71 95 35 47 164 222 287 390 124 168
228 310 233 315 11 14 223 301 387 524 74 100 196 265 270 365 74 100 200 269
279 376 80 107 222 298 315 425 94 126 253 340 353 475 100 135 186 250 190
255 5 6 69 91 142 190 74 99 146 196 161 215 14 19 183 244 375 500 192 256
351 467 355 470 3 3 17 21 30 40 14 19 28 40 33 45 4 6 62 82 128 170 66 88
125 167 132 175 7 8 61 80 121 160 60 80 120 159 133 175 13 17 27 35 31 40
188 249 267 351 271 355 4 3 15 18 24 33 10 16 27 38 37 50 10 12 75 96 144
187 69 91 134 176 145 190 11 14 62 81 115 150 52 69 105 136 116 150 11 14
84 108 162 210 221 289 1049 1353 1138 1463 4 4 7 2 7 -5 0 -14 15 -73 63
-243 17 -60 33 -121 36 -134 3 -14 7 -28 10 -33 3 -4 7 -16 9 -25 3 -16 20
-76 61 -218 8 -27 17 -57 19 -65 9 -33 35 -119 55 -185 12 -38 23 -80 26 -92
2 -12 9 -35 15 -50 6 -16 12 -35 14 -43 7 -26 62 -210 126 -417 11 -38 24 -81
29 -98 4 -16 19 -66 33 -110 14 -44 57 -183 96 -310 39 -126 73 -236 76 -243
2 -7 5 -14 5 -17 0 -3 8 -24 16 -47 9 -24 17 -51 19 -60 2 -9 9 -26 15 -37 6
-12 9 -21 6 -21 -3 0 9 -39 26 -87 16 -49 31 -95 33 -103 2 -8 12 -42 23 -75
27 -80 115 -358 118 -367 1 -5 2 -9 4 -10 1 -2 3 -10 5 -18 1 -8 19 -64 40
-125 20 -60 38 -117 40 -125 2 -8 4 -16 5 -17 2 -2 3 -6 4 -10 3 -15 58 -188
66 -208 10 -24 133 -406 136 -420 1 -5 24 -77 52 -160 72 -219 166 -508 168
-520 1 -5 23 -73 49 -150 25 -77 48 -147 50 -155 4 -18 93 -289 102 -310 3 -8
7 -19 9 -25 1 -5 18 -55 38 -110 20 -55 38 -107 40 -115 4 -16 62 -174 73
-200 3 -8 7 -17 7 -20 1 -3 6 -18 13 -35 6 -16 25 -66 41 -110 39 -101 121
-312 135 -345 6 -14 11 -28 12 -32 2 -5 4 -10 5 -13 1 -3 3 -8 5 -12 1 -5 6
-19 12 -33 6 -14 28 -65 48 -115 99 -240 112 -270 136 -324 11 -24 29 -64 39
-90 10 -25 33 -77 51 -116 18 -38 33 -72 34 -75 5 -15 22 -54 58 -130 22 -47
41 -87 42 -90 25 -79 470 -974 619 -1245 19 -33 50 -90 70 -128 20 -37 52 -97
72 -135 20 -37 40 -71 44 -77 4 -5 28 -46 52 -90 25 -44 54 -96 65 -115 11
-19 41 -75 68 -125 27 -49 59 -107 72 -127 13 -21 23 -40 23 -43 0 -2 20 -39
45 -81 25 -41 45 -80 45 -85 0 -5 3 -9 8 -9 4 0 14 -15 21 -32 17 -37 145
-257 161 -275 5 -7 10 -15 10 -18 0 -10 308 -515 321 -525 3 -3 12 -16 19 -30
15 -29 141 -222 149 -230 8 -6 29 -41 38 -60 4 -8 12 -20 17 -26 6 -7 40 -55
76 -108 55 -82 144 -209 225 -321 170 -235 520 -672 668 -833 175 -192 479
-479 692 -657 39 -31 81 -67 95 -79 14 -12 41 -32 60 -46 19 -13 37 -27 40
-30 7 -10 269 -203 305 -226 17 -10 32 -21 35 -25 3 -4 91 -63 195 -131 190
-125 451 -282 620 -373 50 -26 113 -61 142 -76 28 -15 242 -124 475 -242 494
-250 632 -314 1096 -508 12 -5 32 -13 45 -19 138 -59 825 -304 881 -314 6 -1
43 -12 81 -24 108 -33 242 -73 262 -77 10 -2 32 -8 48 -15 17 -6 32 -11 35
-11 3 0 23 -4 45 -10 22 -6 49 -13 60 -16 30 -6 38 -9 60 -16 11 -3 31 -8 45
-11 14 -3 72 -17 130 -31 90 -22 183 -44 265 -61 102 -21 125 -25 146 -29 48
-9 71 -14 87 -19 9 -3 33 -7 52 -10 19 -3 46 -8 60 -11 13 -2 40 -7 60 -10 20
-3 47 -7 60 -10 13 -3 40 -7 60 -10 20 -3 47 -7 60 -10 13 -3 42 -7 65 -10 22
-4 51 -8 65 -10 58 -9 110 -16 150 -20 24 -2 60 -7 80 -10 99 -15 209 -25 435
-40 220 -15 585 -24 1117 -29 170 -1 310 -5 313 -7 5 -6 6 -3812 1 -3944 -7
-172 -19 -373 -31 -510 -4 -44 -8 -102 -11 -130 -2 -27 -6 -70 -9 -95 -2 -24
-7 -67 -10 -95 -7 -65 -22 -182 -30 -235 -2 -14 -7 -49 -10 -79 -4 -30 -9 -63
-11 -75 -2 -11 -6 -38 -9 -61 -12 -82 -25 -156 -30 -175 -2 -8 -7 -37 -10 -64
-3 -27 -7 -52 -10 -56 -2 -4 -7 -22 -9 -41 -3 -19 -8 -45 -11 -59 -3 -14 -7
-37 -10 -53 -3 -15 -12 -60 -21 -100 -17 -78 -17 -78 -34 -152 -6 -27 -13 -57
-15 -65 -2 -8 -9 -37 -15 -65 -6 -27 -13 -57 -15 -65 -2 -12 -18 -70 -31 -115
-2 -5 -8 -28 -14 -50 -6 -22 -13 -47 -15 -55 -121 -424 -270 -780 -460 -1098
-102 -171 -99 -166 -106 -172 -3 -3 -20 -27 -39 -55 -18 -27 -44 -63 -57 -80
-13 -16 -27 -35 -31 -40 -4 -6 -39 -48 -79 -95 -131 -155 -306 -316 -454 -415
-38 -25 -74 -51 -81 -58 -7 -7 -25 -18 -40 -26 -16 -8 -28 -18 -28 -23 0 -4
-5 -8 -10 -8 -13 0 -324 -182 -328 -192 -2 -4 -8 -8 -14 -8 -12 0 -98 -56
-195 -127 -335 -246 -562 -544 -644 -843 -7 -25 -14 -49 -15 -55 -8 -26 -22
-98 -31 -155 -10 -58 -10 -380 -1 -445 4 -27 12 -65 17 -83 5 -18 10 -35 10
-37 -1 -35 50 -198 94 -300 104 -242 295 -484 499 -636 45 -34 90 -64 98 -67
8 -3 17 -9 20 -13 8 -11 180 -101 180 -93 0 3 6 1 14 -5 14 -12 116 -49 155
-57 13 -3 31 -9 40 -13 9 -5 32 -12 51 -15 19 -3 46 -8 60 -11 110 -22 368
-22 484 1 12 2 40 7 64 10 24 3 78 15 120 25 100 25 107 27 107 29 0 1 7 3 15
5 99 21 331 123 535 234 150 82 418 248 423 263 2 4 8 8 13 8 5 0 64 39 131
87 138 98 216 156 336 255 229 185 527 474 729 704 350 400 669 878 887 1329
96 197 166 355 159 355 -3 0 -1 6 5 13 50 62 336 867 416 1172 1 6 8 30 15 55
7 25 15 55 17 68 3 13 11 42 18 65 16 50 53 198 61 246 3 19 8 37 10 41 2 3 6
17 9 31 2 13 18 87 35 164 16 77 33 156 36 175 3 19 8 42 11 51 2 10 7 30 9
45 2 16 6 39 9 50 4 21 15 78 21 119 7 41 17 98 21 118 2 12 6 39 9 62 3 22
10 65 15 95 11 68 21 137 25 170 2 22 7 52 20 140 2 14 6 50 10 80 3 30 7 69
10 85 2 17 7 59 11 95 3 36 8 76 9 90 7 70 18 179 20 210 4 52 16 200 21 240
13 120 18 875 16 2630 l-1 1995 202 1 c185 0 607 11 752 19 140 7 323 18 355
20 19 1 78 6 130 9 52 4 113 8 135 10 22 2 75 7 118 10 43 4 96 9 118 11 22 2
65 7 97 10 92 9 180 18 287 31 28 3 61 7 75 9 14 1 50 6 80 10 30 4 66 9 80
10 64 7 147 18 165 21 11 3 36 6 55 9 19 2 49 6 65 9 17 3 50 8 75 11 44 6 71
10 130 20 17 3 44 7 60 10 17 3 44 7 60 10 17 3 44 7 60 10 30 5 51 9 120 20
19 3 42 8 50 10 8 3 31 7 50 9 19 3 45 7 56 10 12 2 37 7 55 10 58 10 93 17
109 21 8 2 29 7 45 10 17 2 41 7 55 10 14 3 36 8 50 10 14 2 34 6 45 9 11 2
63 14 115 26 52 12 110 23 129 26 18 2 42 9 52 15 10 5 19 8 19 5 0 -2 16 0
36 6 20 5 44 11 53 13 9 2 43 10 76 19 33 8 75 18 94 21 19 3 37 8 41 10 3 2
17 6 31 8 13 3 44 10 69 17 25 7 46 12 47 12 2 -1 17 4 35 9 34 10 58 17 93
24 11 3 83 23 160 45 77 22 148 42 157 45 33 7 133 38 163 49 17 6 32 11 35
12 16 2 104 28 160 47 36 11 68 22 73 23 4 1 9 3 12 4 3 1 8 3 13 4 10 2 185
60 322 108 135 46 139 47 145 48 3 0 26 10 52 21 27 12 55 22 63 24 23 5 261
96 317 121 17 8 33 14 36 14 2 0 22 8 43 17 22 9 44 18 49 19 11 3 198 79 230
94 11 5 54 23 95 41 41 17 99 42 128 55 28 13 76 35 105 48 28 13 75 33 102
46 190 84 663 321 860 430 233 129 281 156 483 277 188 112 189 113 442 278
381 249 917 647 1180 879 14 12 64 55 110 96 91 79 305 273 356 324 18 17 72
70 120 117 82 80 222 225 350 360 44 47 307 348 340 389 7 8 34 42 61 75 92
111 297 383 385 507 166 235 408 613 408 637 0 5 4 11 8 13 9 3 23 27 104 173
66 120 308 615 308 630 0 3 13 33 29 68 16 35 57 135 91 222 34 88 66 169 70
180 29 68 165 483 174 528 2 7 10 38 20 69 9 31 19 69 22 84 3 15 8 32 11 37
3 6 7 20 9 31 1 12 10 46 18 78 8 31 17 67 20 80 3 12 8 34 11 48 3 14 8 36
11 50 3 14 7 30 8 35 5 19 26 120 30 145 3 14 7 37 10 53 3 15 10 53 16 85 6
31 12 68 15 82 3 13 7 42 10 65 4 22 8 51 10 65 2 14 7 45 10 70 3 25 8 63 10
85 11 80 15 111 20 170 3 33 7 83 10 110 26 283 26 765 0 1105 -8 105 -16 186
-31 291 -2 20 -6 56 -9 80 -5 47 -14 129 -20 169 -2 14 -6 43 -10 65 -3 23 -8
52 -10 65 -3 14 -8 41 -11 60 -9 60 -11 73 -23 135 -11 57 -15 77 -26 128 -3
12 -7 34 -10 49 -3 16 -12 58 -21 95 -9 38 -18 76 -20 86 -12 53 -27 109 -44
172 -6 22 -13 51 -16 64 -3 13 -9 32 -15 43 -5 10 -7 18 -4 18 3 0 -1 15 -8
33 -8 17 -15 35 -15 40 -1 4 -2 8 -3 10 -2 7 -9 34 -11 47 -2 8 -6 20 -10 25
-3 6 -9 26 -13 45 -4 19 -11 40 -15 45 -5 6 -9 15 -9 20 -3 19 -23 90 -29 100
-4 6 -7 15 -8 20 -2 12 -71 203 -83 230 -5 11 -34 84 -65 162 -31 78 -71 173
-88 210 -18 37 -32 70 -33 73 -2 20 -221 460 -275 555 -13 22 -36 65 -53 95
-66 122 -287 482 -317 517 -5 7 -10 15 -10 18 0 5 -164 245 -192 280 -4 5 -55
75 -114 154 -482 653 -1110 1291 -1854 1883 -294 233 -640 483 -925 669 -89
57 -170 110 -180 117 -11 7 -28 15 -37 18 -10 4 -18 9 -18 13 0 4 -17 15 -37
26 -21 11 -40 22 -43 26 -5 6 -180 110 -242 144 -21 11 -38 24 -38 30 -1 5 41
22 92 38 51 16 188 60 303 98 116 38 217 71 225 74 19 5 198 70 230 83 14 6
90 36 170 68 80 31 170 68 200 82 30 15 57 26 60 27 40 6 590 285 692 351 21
13 40 24 42 24 3 0 49 28 103 61 513 322 935 679 1283 1084 388 451 729 1012
960 1575 12 30 28 69 35 85 7 17 24 62 38 100 14 39 33 88 42 110 10 22 17 41
16 42 0 2 2 8 4 15 43 123 132 416 150 498 2 8 8 30 14 48 5 17 8 32 5 32 -3
0 0 8 5 18 5 9 12 33 15 53 3 20 10 47 15 60 5 13 9 26 9 29 1 12 17 97 27
143 3 12 8 36 10 52 3 17 8 37 10 45 2 8 6 31 9 50 3 19 8 46 11 60 3 14 8 45
11 70 3 25 8 54 10 65 3 11 7 36 9 55 9 61 15 105 19 125 2 11 7 47 10 80 4
33 9 74 12 90 37 249 37 827 -1 1180 -3 33 -8 80 -10 105 -2 25 -6 61 -9 80
-14 105 -19 137 -21 151 -2 9 -6 40 -10 69 -4 29 -9 62 -11 74 -2 11 -6 36 -9
56 -3 20 -7 47 -10 60 -3 13 -7 40 -10 60 -3 20 -8 47 -10 60 -3 14 -7 36 -10
50 -3 14 -7 36 -10 50 -3 14 -7 39 -10 55 -3 17 -8 41 -10 55 -8 40 -15 73
-20 100 -10 52 -15 76 -22 105 -3 17 -7 37 -9 45 -1 8 -7 40 -14 70 -6 30 -14
69 -16 85 -5 29 -47 170 -99 330 -14 44 -28 87 -30 95 -2 8 -24 76 -49 150
-26 74 -48 142 -50 150 -2 8 -11 35 -20 60 -9 25 -18 52 -21 60 -2 8 -17 53
-35 100 -17 47 -32 90 -33 95 -1 6 -8 24 -14 40 -6 17 -20 55 -31 85 -11 30
-40 105 -63 165 -24 61 -43 112 -42 115 1 3 -5 16 -12 30 -19 35 -55 119 -55
126 0 8 -85 204 -117 269 -13 28 -26 59 -28 69 -3 11 -8 22 -13 25 -4 3 -14
22 -22 41 -14 36 -170 342 -212 417 -116 206 -144 253 -150 253 -5 0 -8 6 -8
13 0 8 -12 32 -28 53 -15 21 -33 51 -41 67 -8 15 -18 27 -23 27 -4 0 -8 5 -8
11 0 24 -381 555 -434 604 -6 6 -24 28 -40 49 -79 105 -309 357 -474 520 -63
61 -130 127 -150 148 -36 35 -225 204 -273 243 -13 11 -51 43 -84 71 -57 49
-276 220 -326 256 -13 9 -55 40 -94 69 -88 66 -405 280 -425 287 -8 3 -17 9
-20 13 -3 3 -86 55 -185 114 -171 103 -423 236 -565 299 -63 28 -132 59 -232
105 -26 11 -50 21 -53 21 -2 0 -34 14 -70 30 -36 17 -67 30 -70 30 -2 0 -14 4
-27 9 -13 5 -25 8 -28 8 -3 -1 -18 6 -35 16 -16 9 -61 28 -100 42 -38 15 -97
37 -130 50 -85 34 -203 76 -218 79 -6 2 -19 6 -27 9 -41 17 -344 114 -495 157
-149 43 -198 56 -278 75 -10 2 -27 7 -37 10 -10 3 -28 8 -39 10 -12 3 -31 8
-43 11 -13 3 -32 7 -43 9 -11 1 -40 8 -65 15 -25 7 -54 14 -65 16 -21 5 -92
20 -135 29 -14 2 -36 7 -50 10 -36 8 -71 14 -105 20 -16 3 -37 8 -45 10 -8 2
-33 7 -55 10 -23 3 -52 8 -65 11 -28 5 -52 9 -125 19 -27 4 -59 9 -70 11 -11
2 -40 7 -65 10 -25 3 -52 7 -60 9 -8 2 -42 7 -75 10 -33 3 -75 8 -94 11 -18 2
-59 7 -90 9 -31 3 -69 7 -86 10 -26 3 -68 7 -255 20 -123 9 -657 25 -662 19z
m482 -3147 c25 -3 77 -9 115 -12 39 -3 84 -8 100 -9 17 -2 57 -7 90 -10 33 -4
67 -8 75 -11 8 -2 35 -6 60 -9 25 -3 55 -8 66 -10 12 -2 37 -7 55 -10 31 -5
199 -41 242 -52 9 -2 25 -6 36 -8 67 -15 243 -59 281 -70 25 -8 63 -18 85 -24
42 -12 180 -51 205 -59 8 -2 16 -4 17 -4 2 0 18 -6 38 -15 19 -8 35 -11 35 -8
0 4 6 2 13 -4 7 -6 24 -13 37 -15 14 -3 39 -10 55 -17 17 -6 37 -13 45 -15 21
-6 221 -79 300 -111 88 -36 97 -39 160 -67 30 -13 80 -35 110 -48 169 -73 448
-227 634 -352 367 -245 762 -618 1020 -962 37 -49 73 -97 79 -105 31 -39 207
-317 207 -326 0 -2 11 -22 24 -43 37 -58 196 -379 196 -395 0 -2 10 -26 22
-53 12 -26 22 -50 23 -53 1 -3 9 -22 18 -44 9 -21 17 -42 17 -47 0 -5 4 -17 9
-27 12 -23 23 -51 64 -157 19 -49 38 -99 42 -110 5 -11 9 -24 11 -30 2 -5 34
-102 73 -215 38 -113 83 -252 99 -310 17 -58 35 -117 41 -132 6 -16 9 -28 6
-28 -2 0 2 -18 10 -40 8 -22 12 -40 10 -40 -2 0 2 -18 10 -40 8 -22 12 -40 10
-40 -3 0 0 -12 6 -27 5 -14 12 -38 14 -52 2 -14 6 -37 9 -51 4 -14 8 -36 11
-50 3 -14 7 -36 10 -50 3 -14 8 -38 11 -55 2 -16 7 -41 9 -55 3 -14 7 -34 9
-45 2 -11 7 -49 11 -85 4 -36 9 -67 10 -70 3 -5 12 -88 20 -185 30 -353 24
-625 -21 -900 -13 -78 -15 -91 -19 -105 -2 -8 -7 -31 -10 -50 -3 -19 -13 -62
-21 -95 -9 -33 -18 -68 -19 -78 -2 -9 -6 -21 -9 -25 -3 -5 -7 -19 -10 -33 -5
-27 -61 -203 -75 -234 -5 -11 -17 -40 -27 -65 -175 -440 -456 -842 -754 -1080
-197 -158 -542 -350 -835 -465 -38 -15 -83 -33 -100 -41 -33 -14 -296 -112
-335 -125 -14 -4 -77 -26 -140 -48 -63 -23 -124 -43 -135 -46 -11 -2 -36 -11
-55 -19 -39 -16 -71 -28 -82 -31 -5 -2 -9 -3 -10 -5 -2 -1 -10 -3 -18 -5 -8
-2 -46 -14 -85 -28 -38 -13 -117 -39 -175 -57 -58 -18 -123 -39 -145 -46 -22
-7 -67 -21 -100 -29 -33 -9 -76 -21 -95 -26 -50 -14 -68 -18 -87 -23 -10 -3
-81 -21 -158 -41 -77 -19 -149 -37 -160 -40 -24 -5 -151 -34 -180 -40 -11 -3
-31 -7 -45 -10 -14 -3 -35 -7 -47 -10 -13 -3 -33 -7 -45 -10 -13 -3 -36 -8
-53 -11 -16 -3 -49 -9 -73 -15 -23 -5 -57 -11 -75 -14 -17 -2 -43 -7 -57 -10
-29 -6 -61 -12 -110 -20 -19 -3 -46 -8 -60 -10 -96 -19 -114 -23 -175 -31 -27
-3 -57 -7 -65 -9 -8 -1 -35 -6 -60 -10 -25 -3 -58 -9 -75 -11 -28 -5 -46 -8
-135 -19 -19 -3 -46 -7 -60 -10 -13 -3 -49 -7 -80 -10 -31 -3 -66 -7 -79 -10
-28 -5 -109 -15 -241 -29 -30 -3 -77 -9 -105 -12 -56 -7 -70 -9 -170 -18 -38
-4 -88 -9 -110 -12 -22 -2 -65 -6 -95 -9 -30 -2 -77 -7 -105 -9 -86 -8 -198
-18 -245 -21 -25 -2 -76 -6 -115 -9 -38 -3 -101 -8 -140 -11 -38 -3 -81 -7
-95 -10 -14 -3 -59 -7 -100 -10 -82 -6 -140 -11 -204 -20 -23 -3 -59 -8 -81
-11 -22 -3 -42 -7 -46 -9 -3 -2 -21 -7 -40 -10 -183 -32 -444 -152 -584 -269
-96 -81 -187 -169 -233 -226 -86 -106 -112 -142 -112 -156 0 -8 -4 -14 -8 -14
-10 0 -112 -211 -112 -231 0 -8 -6 -26 -14 -40 -11 -21 -28 -87 -52 -194 -17
-78 -23 -157 -31 -380 -10 -308 -6 -520 11 -625 3 -14 7 -43 11 -65 3 -22 7
-47 10 -55 2 -8 6 -26 9 -40 3 -14 7 -34 10 -45 3 -11 10 -38 15 -61 18 -72
70 -204 117 -294 159 -310 422 -547 739 -671 28 -10 177 -60 195 -65 8 -2 53
-15 100 -29 83 -25 376 -99 435 -109 51 -10 76 -15 93 -20 9 -3 31 -8 47 -11
17 -2 41 -7 55 -10 14 -3 36 -8 50 -11 14 -2 79 -18 145 -35 66 -17 127 -32
135 -34 8 -2 27 -8 43 -14 15 -6 27 -8 27 -6 0 3 16 -1 35 -9 19 -8 35 -13 35
-11 0 2 16 -3 35 -11 19 -8 35 -12 35 -9 0 3 17 -2 38 -9 20 -8 105 -35 187
-61 83 -26 215 -69 295 -97 80 -27 150 -51 155 -52 6 -2 19 -6 30 -11 11 -4
45 -16 75 -28 30 -11 70 -27 89 -35 18 -8 39 -15 45 -17 13 -2 19 -5 141 -52
50 -19 104 -41 120 -48 17 -7 55 -23 85 -35 67 -27 81 -33 145 -61 28 -12 84
-36 125 -54 174 -75 563 -265 720 -351 41 -22 109 -59 150 -81 41 -22 103 -57
137 -77 34 -20 66 -36 72 -36 6 0 11 -4 11 -10 0 -5 4 -10 9 -10 5 0 46 -22
90 -50 44 -27 85 -50 91 -50 5 0 10 -4 10 -8 0 -5 12 -14 27 -21 27 -12 499
-324 538 -355 11 -9 54 -41 95 -72 198 -145 500 -397 715 -594 200 -184 428
-416 570 -580 26 -30 52 -59 59 -65 6 -5 23 -26 37 -45 15 -19 39 -48 53 -65
15 -16 61 -75 103 -130 43 -55 80 -102 83 -105 10 -9 55 -75 157 -230 57 -85
107 -160 113 -167 5 -7 10 -15 10 -19 0 -3 15 -32 34 -63 121 -200 362 -699
406 -841 5 -14 24 -69 43 -122 20 -54 33 -98 31 -98 -2 0 3 -17 11 -37 12 -32
43 -141 60 -216 2 -10 6 -26 9 -35 3 -9 8 -33 11 -52 3 -19 8 -43 11 -52 6
-19 10 -40 24 -118 24 -138 38 -234 46 -309 3 -31 7 -72 9 -91 24 -205 24
-633 1 -855 -4 -41 -18 -145 -22 -170 -2 -11 -5 -33 -8 -50 -10 -68 -26 -152
-42 -225 -3 -14 -7 -36 -10 -50 -2 -14 -7 -32 -10 -40 -4 -8 -8 -24 -10 -35
-5 -35 -17 -80 -27 -105 -3 -8 -15 -49 -26 -90 -12 -41 -32 -105 -45 -142 -14
-38 -22 -68 -19 -68 3 0 1 -6 -4 -12 -6 -7 -16 -31 -23 -53 -43 -138 -234
-554 -339 -740 -13 -22 -33 -58 -44 -80 -12 -22 -25 -42 -28 -45 -3 -3 -16
-25 -30 -50 -13 -25 -27 -49 -32 -55 -4 -5 -49 -73 -100 -150 -155 -234 -311
-437 -505 -658 -104 -119 -392 -412 -523 -532 -36 -33 -87 -80 -115 -105 -177
-164 -495 -419 -734 -590 -227 -163 -371 -258 -650 -430 -35 -21 -309 -180
-350 -202 -151 -83 -206 -111 -395 -205 -115 -57 -227 -113 -248 -124 -22 -10
-45 -19 -53 -19 -8 0 -14 -4 -14 -10 0 -5 -6 -10 -13 -10 -7 0 -35 -11 -63
-24 -82 -39 -250 -111 -419 -178 -88 -36 -169 -68 -180 -73 -11 -4 -25 -9 -30
-10 -10 -2 -46 -16 -202 -77 -29 -11 -53 -19 -55 -18 -2 1 -28 -8 -58 -20 -30
-12 -59 -23 -65 -25 -5 -1 -17 -5 -25 -8 -40 -16 -452 -147 -512 -163 -5 -1
-9 -2 -10 -4 -2 -1 -10 -3 -18 -5 -8 -2 -64 -17 -125 -35 -60 -17 -117 -33
-125 -35 -8 -1 -35 -9 -60 -16 -70 -19 -96 -26 -137 -35 -12 -2 -34 -9 -48
-14 -14 -5 -25 -7 -25 -5 0 2 -11 0 -25 -5 -14 -5 -36 -12 -48 -14 -12 -2 -40
-9 -62 -14 -22 -6 -51 -13 -65 -16 -14 -2 -32 -7 -40 -10 -8 -3 -26 -8 -40
-10 -14 -3 -70 -14 -125 -26 -127 -28 -135 -29 -165 -35 -14 -3 -34 -7 -45 -9
-11 -2 -40 -7 -65 -12 -25 -4 -47 -8 -50 -9 -3 -1 -25 -5 -50 -9 -25 -5 -54
-10 -65 -12 -10 -2 -37 -6 -60 -9 -22 -3 -47 -8 -55 -10 -19 -5 -74 -15 -119
-21 -19 -2 -47 -6 -63 -9 -121 -21 -171 -28 -263 -40 -21 -2 -75 -10 -120 -16
-44 -6 -93 -13 -110 -15 -16 -2 -52 -6 -80 -10 -27 -3 -66 -8 -85 -9 -19 -2
-57 -6 -85 -9 -27 -3 -75 -8 -105 -11 -30 -3 -75 -7 -100 -10 -25 -2 -72 -7
-105 -10 -33 -3 -79 -7 -102 -10 -22 -2 -83 -7 -135 -10 -51 -4 -113 -8 -138
-10 -271 -19 -718 -38 -935 -39 l-130 -1 1 11260 c0 6193 4 11361 8 11485 10
279 17 405 31 515 12 102 18 140 36 230 26 129 59 224 125 360 106 222 209
362 408 560 121 121 324 284 417 337 21 12 39 25 39 30 0 4 4 8 10 8 5 0 38
17 72 38 59 36 389 202 402 202 3 0 37 15 76 34 39 19 74 35 78 36 4 0 63 22
132 50 69 27 145 56 170 65 51 18 231 78 243 81 4 1 9 3 12 4 3 1 8 3 13 4 4
2 25 8 47 14 22 6 42 11 45 11 3 0 19 5 35 11 17 7 37 13 45 15 8 2 51 13 95
25 44 12 88 23 98 26 10 2 27 6 37 9 23 7 56 15 95 21 17 3 48 10 70 16 22 5
49 12 60 14 52 11 72 14 100 19 17 3 41 8 55 10 14 3 36 8 50 10 14 3 41 7 60
10 19 3 46 7 60 10 14 3 43 8 64 10 46 5 103 14 135 20 12 2 50 7 84 10 34 4
78 8 97 11 32 4 97 10 210 19 25 2 99 7 165 10 66 4 121 8 123 10 5 5 825 -3
872 -8z"/>
</g>
</svg>
